<?xml version="1.0" encoding="UTF-8" standalone="no"?>

<svg
  xmlns:dc="http://purl.org/dc/elements/1.1/"
  xmlns:cc="http://creativecommons.org/ns#"
  xmlns:rdf="http://www.w3.org/1999/02/22-rdf-syntax-ns#"
  xmlns="http://www.w3.org/2000/svg"
  width="322.83157mm"
  height="322.83157mm"
  viewBox="0 0 322.83157 322.83157"
  version="1.1"
  id="svg4185">
  <defs
     id="defs4179" />
  <metadata
     id="metadata4182">
    <rdf:RDF>
      <cc:Work
         rdf:about="">
        <dc:format>image/svg+xml</dc:format>
        <dc:type
           rdf:resource="http://purl.org/dc/dcmitype/StillImage" />
        <dc:title></dc:title>
      </cc:Work>
    </rdf:RDF>
  </metadata>
  <g
     id="layer1"
     transform="translate(-8.4898311,72.302646)">
    <g
       id="g96"
       transform="matrix(2.1387674,0,0,2.1387674,-148.48971,-1014.1303)"
       style="fill:#292826;fill-opacity:1;stroke:#000000;stroke-opacity:1">
      <path
         d="M 84.28144,478.479 148.5736,512.4107 212.8657,478.479 148.5736,441.36 Z"
         style="fill:#292826;fill-opacity:1;stroke:#000000;stroke-width:2;stroke-linecap:round;stroke-linejoin:round;stroke-miterlimit:10;stroke-dasharray:none;stroke-opacity:1"
         id="path98" />
    </g>
    <g
       id="g102"
       transform="matrix(2.1387674,0,0,2.1387674,-148.48971,-1014.1303)"
       style="fill:#292826;fill-opacity:1">
      <path
         d="m 84.28144,478.9459 64.29216,33.9317 v 77.4253 l -64.29216,-37.119 z"
         style="fill:#000000;fill-opacity:1;stroke:#000000;stroke-width:2;stroke-linecap:round;stroke-linejoin:round;stroke-miterlimit:10;stroke-dasharray:none;stroke-opacity:1"
         id="path104" />
    </g>
    <g
       id="g108"
       transform="matrix(2.1387674,0,0,2.1387674,-148.48971,-1014.1303)"
       style="fill:#000000;fill-opacity:1;stroke:#000000;stroke-opacity:1">
      <path
         d="m 149.1977,512.8776 64.2921,-33.9317 v 74.238 l -64.2921,37.119 z"
         style="fill:#000000;fill-opacity:1;stroke:#000000;stroke-width:2;stroke-linecap:round;stroke-linejoin:round;stroke-miterlimit:10;stroke-dasharray:none;stroke-opacity:1"
         id="path110" />
    </g>
    <path
       d="M 49.290719,19.45509 169.94199,83.131568 290.59301,19.45509 169.94199,-50.202853 Z"
       style="fill:#292826;fill-opacity:1;fill-rule:nonzero;stroke:none;stroke-width:2.45835328"
       id="path114" />
    <path
       d="M 49.290719,19.45509 169.94199,83.131568 V 228.42864 L 49.290719,158.77069 Z"
       style="fill:#292826;fill-opacity:1;fill-rule:nonzero;stroke:none;stroke-width:2.45835328"
       id="path122" />
    <path
       d="M 169.9422,83.132056 290.59329,19.455577 V 158.77119 L 169.9422,228.42913 Z"
       style="fill:#292826;fill-opacity:1;fill-rule:nonzero;stroke:none;stroke-width:2.45835328"
       id="path130" />
    <path
       d="M 31.768685,9.2249312 169.27468,81.79695 306.7805,9.2249312 169.27468,-70.163985 Z"
       style="fill:#000000;fill-opacity:1;fill-rule:nonzero;stroke:#000000;stroke-width:2.13876748;stroke-opacity:1"
       id="path94" />
    <path
       d="M 31.768685,10.223509 169.27468,82.795528 V 248.39027 L 31.768685,169.00136 Z"
       style="fill:#000000;fill-opacity:1;fill-rule:nonzero;stroke:none;stroke-width:2.13876748"
       id="path100" />
    <path
       d="M 170.60948,82.795528 308.11531,10.223509 V 169.00136 l -137.50583,79.38891 z"
       style="fill:#000000;fill-opacity:1;fill-rule:nonzero;stroke:none;stroke-width:2.13876748"
       id="path106" />
    <g
       id="g116"
       transform="matrix(2.4583533,0,0,2.4583533,-196.07146,-1178.9827)">
      <path
         d="m 99.80753,487.4962 49.07807,25.9021 49.078,-25.9021 -49.078,-28.3352 z"
         style="fill:none;stroke:#f9d342;stroke-width:3;stroke-linecap:round;stroke-linejoin:round;stroke-miterlimit:10;stroke-dasharray:none;stroke-opacity:1"
         id="path118" />
    </g>
    <g
       id="g124"
       transform="matrix(2.4583533,0,0,2.4583533,-196.07146,-1178.9827)">
      <path
         d="m 99.80753,487.4962 49.07807,25.9021 v 59.1034 L 99.80753,544.1665 Z"
         style="fill:none;stroke:#f9d342;stroke-width:3;stroke-linecap:round;stroke-linejoin:round;stroke-miterlimit:10;stroke-dasharray:none;stroke-opacity:1"
         id="path126" />
    </g>
    <g
       id="g132"
       transform="matrix(2.4583533,0,0,2.4583533,-196.07146,-1178.9827)">
      <path
         d="m 148.8857,513.3985 49.078,-25.9021 v 56.6703 l -49.078,28.3352 z"
         style="fill:none;stroke:#f9d342;stroke-width:3;stroke-linecap:round;stroke-linejoin:round;stroke-miterlimit:10;stroke-dasharray:none;stroke-opacity:1"
         id="path134" />
    </g>
    <g
       id="g136"
       transform="matrix(2.4583533,0,0,2.4583533,-196.07146,-1178.9827)"
       style="fill:#f9d342;fill-opacity:0">
      <path
         d="m 122.0303,481.2279 28.0745,5.7606 14.7497,10.4809"
         style="fill:#f9d342;fill-opacity:0;stroke:#f9d342;stroke-width:6;stroke-linecap:round;stroke-linejoin:miter;stroke-miterlimit:10;stroke-dasharray:none;stroke-opacity:1"
         id="path138" />
    </g>
    <g
       id="g140"
       transform="matrix(2.4583533,0,0,2.4583533,-196.07146,-1178.9827)"
       style="fill:#000000;fill-opacity:1">
      <path
         d="m 142.9622,469.4719 6.5761,17.5167"
         style="fill:#f9d342;fill-opacity:1;stroke:#f9d342;stroke-width:6;stroke-linecap:round;stroke-linejoin:miter;stroke-miterlimit:10;stroke-dasharray:none;stroke-opacity:1"
         id="path142" />
    </g>
    <g
       id="g144"
       transform="matrix(2.4583533,0,0,2.4583533,-196.07146,-1178.9827)">
      <path
         d="m 160.4264,514.7804 25.782,-13.7225 -23.9376,56.2948 27.4044,-16.1199"
         style="fill:none;stroke:#f9d342;stroke-width:6;stroke-linecap:round;stroke-linejoin:round;stroke-miterlimit:10;stroke-dasharray:none;stroke-opacity:1"
         id="path146" />
    </g>
    <g
       id="g148"
       transform="matrix(2.4583533,0,0,2.4583533,-196.07146,-1178.9827)">
      <path
         d="m 113.1023,501.5499 20.407,55.0842"
         style="fill:none;stroke:#f9d342;stroke-width:6;stroke-linecap:round;stroke-linejoin:miter;stroke-miterlimit:10;stroke-dasharray:none;stroke-opacity:1"
         id="path150" />
    </g>
    <g
       id="g152"
       transform="matrix(2.4583533,0,0,2.4583533,-196.07146,-1178.9827)">
      <path
         d="m 110.7753,544.1284 24.2483,-31.2533"
         style="fill:none;stroke:#f9d342;stroke-width:6;stroke-linecap:round;stroke-linejoin:miter;stroke-miterlimit:10;stroke-dasharray:none;stroke-opacity:1"
         id="path154" />
    </g>
  </g>
</svg>
